# Blender 5.0.1
# www.blender.org
mtllib disfigured_cube.mtl
o Cube
v 1.000000 1.000000 -1.000000
v 1.000000 -1.000000 -1.000000
v 1.445102 0.318650 0.985936
v 1.000000 -1.000000 1.000000
v -1.000000 1.000000 0.302150
v -1.000000 -1.000000 -1.000000
v -1.000000 1.000000 0.302150
v -1.000000 -1.000000 1.000000
vn 0.1836 0.9417 0.2819
vn -0.0000 0.3294 0.9442
vn -1.0000 -0.0000 -0.0000
vn -0.0000 -1.0000 -0.0000
vn 0.9475 -0.3198 -0.0000
vn -0.0000 -0.0000 -1.0000
vn -0.0000 1.0000 -0.0000
vn -0.2441 0.0927 0.9653
vn 0.9758 -0.0000 -0.2187
vn -0.4790 0.4790 -0.7357
vt 0.625000 0.500000
vt 0.875000 0.662769
vt 0.625000 0.750000
vt 0.375000 0.750000
vt 0.625000 1.000000
vt 0.375000 1.000000
vt 0.375000 0.000000
vt 0.625000 0.087231
vt 0.375000 0.250000
vt 0.375000 0.500000
vt 0.125000 0.750000
vt 0.125000 0.500000
s 0
usemtl Material
f 1/1/1 7/2/1 3/3/1
f 4/4/2 7/5/2 8/6/2
f 8/7/3 5/8/3 6/9/3
f 2/10/4 8/11/4 6/12/4
f 2/10/5 3/3/5 4/4/5
f 6/9/6 1/1/6 2/10/6
f 1/1/7 5/2/7 7/2/7
f 4/4/8 3/3/8 7/5/8
f 8/7/7 7/8/7 5/8/7
f 2/10/4 4/4/4 8/11/4
f 2/10/9 1/1/9 3/3/9
f 6/9/10 5/8/10 1/1/10
